<?xml version="1.0" standalone="no"?>
<!DOCTYPE svg PUBLIC "-//W3C//DTD SVG 20010904//EN"
  "http://www.w3.org/TR/2001/REC-SVG-20010904/DTD/svg10.dtd">
<svg version="1.0" xmlns="http://www.w3.org/2000/svg"
     width="512.000000pt" height="512.000000pt" viewBox="0 0 512.000000 512.000000"
     preserveAspectRatio="xMidYMid meet">
  <metadata>
    Created by potrace 1.16, written by Peter Selinger 2001-2019
  </metadata>
  <g transform="translate(0.000000,512.000000) scale(0.100000,-0.100000)"
     fill="#000000" stroke="none">
    <path d="M2535 5108 c-22 -12 -55 -44 -55 -53 0 -4 -17 -43 -38 -88 -217 -463
-336 -1129 -331 -1852 1 -148 -2 -261 -7 -261 -5 -1 -60 37 -123 85 -241 182
-412 295 -661 439 -104 60 -431 225 -468 237 -13 4 -49 18 -80 32 -149 67
-358 132 -572 178 -137 29 -157 26 -188 -32 -23 -43 -31 -34 368 -420 80 -77
221 -214 315 -304 93 -90 230 -223 305 -295 74 -71 198 -191 274 -265 77 -74
156 -150 176 -169 20 -19 106 -102 190 -185 149 -145 154 -151 158 -195 2 -25
10 -67 18 -94 18 -63 18 -93 -1 -103 -8 -5 -17 -22 -21 -39 -9 -45 35 -94 84
-94 31 0 41 -6 61 -36 57 -83 165 -176 276 -237 43 -24 208 -77 239 -77 l26 0
0 -607 c0 -561 2 -610 18 -629 40 -50 84 -50 124 0 16 19 18 68 18 629 l0 607
23 0 c32 0 142 33 209 63 117 52 243 155 309 251 20 30 30 36 60 36 47 0 83
37 83 86 0 23 -6 39 -17 45 -21 12 -21 29 -3 99 8 30 16 77 18 104 4 44 9 53
59 98 30 27 120 113 200 191 198 193 404 392 663 642 670 645 858 830 867 853
13 33 -14 80 -54 95 -50 19 -483 -98 -687 -186 -19 -8 -69 -29 -110 -46 -201
-85 -580 -294 -806 -445 -69 -47 -227 -158 -234 -166 -7 -8 -210 -160 -213
-160 -1 0 0 116 1 257 5 345 -19 669 -73 1003 -49 298 -152 648 -254 865 -21
44 -41 88 -44 97 -6 16 -63 58 -77 58 -3 0 -14 -6 -25 -12z m114 -493 c21 -66
51 -172 65 -235 15 -63 31 -131 37 -150 11 -42 13 -55 38 -230 45 -307 61
-530 61 -840 0 -309 -24 -633 -65 -865 -7 -44 -16 -100 -19 -124 -3 -24 -7
-46 -9 -47 -4 -5 -388 -6 -392 -2 -2 2 -6 17 -9 33 -48 304 -62 426 -77 655
-13 202 -7 683 11 860 9 96 53 423 65 495 7 39 53 239 65 285 22 83 95 299
117 350 l24 55 25 -60 c13 -33 42 -114 63 -180z m-2228 -1005 c150 -48 225
-73 234 -80 6 -4 37 -17 70 -30 91 -35 386 -180 510 -250 206 -117 469 -291
650 -431 118 -91 240 -192 246 -203 4 -6 12 -64 18 -129 6 -66 21 -173 32
-239 11 -66 18 -122 16 -125 -3 -2 -71 -4 -153 -4 l-148 0 -110 109 c-61 59
-174 169 -251 244 -77 74 -214 207 -305 295 -91 87 -217 209 -280 270 -194
186 -379 365 -500 482 -63 61 -110 111 -104 111 5 0 39 -9 75 -20z m4264 -77
c-170 -163 -353 -340 -520 -502 -88 -86 -223 -216 -300 -290 -176 -168 -387
-373 -531 -513 l-110 -109 -147 0 c-147 0 -173 3 -161 23 11 17 42 213 55 341
6 67 14 127 18 133 6 12 117 102 268 220 81 63 218 161 253 180 11 6 28 18 37
26 23 20 271 170 398 241 181 101 522 255 655 295 19 6 60 20 90 30 102 36
101 28 -5 -75z m-1522 -1586 c-5 -33 -25 -105 -36 -129 l-12 -27 -313 -3 -314
-3 -24 -28 c-31 -36 -30 -67 2 -98 25 -24 27 -24 285 -29 l260 -5 -33 -31
c-129 -121 -322 -182 -496 -157 -42 6 -99 19 -127 28 -81 27 -235 130 -235
157 0 4 19 8 43 8 73 0 120 54 96 109 -18 40 -52 51 -160 51 l-96 0 -17 43
c-9 23 -16 51 -16 60 0 10 -5 27 -10 38 -6 11 -9 23 -6 27 2 4 276 6 608 4
475 -2 603 -5 601 -15z"/>
    <path d="M1554 4927 c-29 -43 -44 -164 -51 -405 -5 -172 6 -402 23 -494 7 -38
-3 -35 -58 15 -74 66 -186 158 -273 223 -183 137 -417 270 -453 257 -32 -11
-62 -46 -62 -72 1 -75 106 -487 132 -518 6 -7 8 -13 5 -13 -9 0 33 -92 51
-112 9 -11 29 -18 51 -18 30 0 40 6 59 34 l23 34 -41 118 c-23 66 -50 155 -61
199 -11 44 -24 88 -29 97 -20 36 10 25 106 -40 194 -132 359 -268 545 -452 50
-50 57 -62 63 -109 4 -28 18 -100 31 -158 26 -115 50 -153 99 -153 22 0 64 32
67 49 0 3 2 15 4 26 2 11 -7 67 -20 125 -14 58 -27 119 -29 135 -2 17 -11 71
-20 120 -44 251 -69 662 -52 827 l8 67 41 -47 c22 -26 60 -74 84 -107 24 -33
50 -69 59 -80 8 -11 27 -39 42 -62 35 -55 81 -81 116 -65 14 6 32 23 42 37 14
22 15 29 3 58 -30 73 -203 299 -333 435 -70 73 -83 82 -115 82 -30 0 -40 -6
-57 -33z"/>
    <path d="M3394 4878 c-129 -135 -278 -329 -327 -426 -17 -33 -18 -38 -4 -68
32 -67 108 -51 161 33 16 24 34 49 40 56 7 7 22 28 33 47 12 19 33 47 45 62
13 16 41 51 63 79 l40 51 8 -43 c5 -24 6 -150 3 -279 -6 -300 -34 -526 -106
-850 -23 -103 -22 -124 10 -158 27 -29 70 -29 97 1 22 23 66 184 79 287 6 51
12 60 68 115 99 98 257 238 354 315 92 72 285 199 294 194 5 -3 5 -11 0 -17
-5 -7 -13 -28 -17 -47 -9 -44 -27 -103 -76 -249 -39 -117 -40 -142 -5 -177 20
-19 70 -18 94 4 47 40 138 329 182 579 12 64 11 75 -4 98 -43 65 -82 54 -326
-100 -52 -32 -138 -92 -191 -131 -92 -69 -126 -97 -248 -203 -67 -58 -74 -61
-68 -25 19 99 29 324 23 506 -11 346 -32 428 -111 428 -27 0 -45 -13 -111 -82z"/>
  </g>
</svg>
